<svg id="Layer_1" data-name="Layer 1" xmlns="http://www.w3.org/2000/svg" viewBox="0 0 50 53"><title>CarouselArrow_Right</title><g id="Homepage"><g id="_1440---Homepage-Batch-A-v3" data-name="1440---Homepage-Batch-A-v3"><g id="Arrow-_-Desktop-Copy-3" data-name="Arrow-/-Desktop-Copy-3"><g id="Group-21"><g id="Group-50"><g id="Fill-1"><path d="M49.5,26.5c0,7-3.6,12.8-7.9,17.5s-10.1,8.5-17,8.5S12.1,48.8,7.6,44A25.7,25.7,0,0,1,.5,26.5c0-7,2.1-13.6,6.4-18.2A24.3,24.3,0,0,1,24.6.5C31.5.5,38.4,3,42.8,7.9s6.7,11.6,6.7,18.6" fill="#f18b20"/></g><g id="Arrow-_-Desktop-2" data-name="Arrow-/-Desktop-2"><g id="Arrow-_-Desktop" data-name="Arrow-/-Desktop"><g id="Path-3"><path d="M23.5,34.5a.9.9,0,0,1-.7-.3,1,1,0,0,1,0-1.4l6.3-6.3-6.3-6.3a1,1,0,0,1,1.4-1.4l7,7a1,1,0,0,1,0,1.4l-7,7A.9.9,0,0,1,23.5,34.5Z" fill="#faf4e5"/></g></g></g></g></g></g></g></g></svg>