<svg id="Layer_1" data-name="Layer 1" xmlns="http://www.w3.org/2000/svg" viewBox="0 0 50 53"><title>CarouselArrow_Right_White</title><path d="M49.5,26.5c0,7-3.6,12.8-7.9,17.5s-10.1,8.5-17,8.5S12.1,48.8,7.6,44A25.9,25.9,0,0,1,.5,26.5c0-7,2.1-13.6,6.4-18.2A24.4,24.4,0,0,1,24.6.5C31.5.5,38.4,3,42.8,7.9a27.8,27.8,0,0,1,6.7,18.6" fill="#fff"/><g id="Arrow-_-Desktop" data-name="Arrow- -Desktop"><g id="Path-3"><path d="M23.5,34.5a.9.9,0,0,1-.7-.3,1,1,0,0,1,0-1.4l6.3-6.3-6.3-6.3a1.1,1.1,0,0,1,.2-1.4.9.9,0,0,1,1.2,0l7,7a1,1,0,0,1,0,1.4l-7,7A.9.9,0,0,1,23.5,34.5Z" fill="#004e37"/></g></g></svg>