<svg id="Layer_1" data-name="Layer 1" xmlns="http://www.w3.org/2000/svg" viewBox="0 0 50 53"><title>CarouselArrow_Left_White</title><path d="M.5,26.5c0-7,2.4-14,6.7-18.6S18.5.5,25.4.5A24.4,24.4,0,0,1,43.1,8.3c4.3,4.6,6.4,11.2,6.4,18.2A25.9,25.9,0,0,1,42.4,44c-4.5,4.8-10.2,8.5-17,8.5S12.9,48.8,8.4,44,.5,33.5.5,26.5" fill="#fff"/><g id="Path-3"><path d="M26.5,34.5a.9.9,0,0,0,.7-.3,1,1,0,0,0,0-1.4l-6.3-6.3,6.3-6.3a1.1,1.1,0,0,0-.2-1.4.9.9,0,0,0-1.2,0l-7,7a1,1,0,0,0,0,1.4l7,7A.9.9,0,0,0,26.5,34.5Z" fill="#004e37"/></g></svg>