<svg id="Layer_1" data-name="Layer 1" xmlns="http://www.w3.org/2000/svg" viewBox="0 0 32 32"><title>CarrotSelector</title><g id="PDP"><g id="_1440---PDP" data-name="1440---PDP"><g id="Group-98"><g id="Group-102"><g id="Oval"><circle cx="16" cy="16" r="15" fill="#fff"/><path d="M16,32A16,16,0,0,1,4.7,4.7a15.9,15.9,0,0,1,22.6,0h0A16,16,0,0,1,16,32ZM16,2A14,14,0,0,0,6.1,25.9,14,14,0,0,0,25.9,6.1h0A14.1,14.1,0,0,0,16,2Z" fill="#004e37"/></g><g id="Fill-1"><path d="M17.6,11.4l-.3.6a2.7,2.7,0,0,0-3.7,1.9,55.1,55.1,0,0,0-1.9,8.7.4.4,0,0,0,.6.3,49.8,49.8,0,0,0,6.6-6,2.7,2.7,0,0,0-.2-4.1l.3-.6" fill="#ef8903"/></g><g id="Fill-4"><path d="M18.7,11.5a3.1,3.1,0,0,1,1.9-2,2.6,2.6,0,0,1,2.6.3,3.6,3.6,0,0,1-2,2,2.5,2.5,0,0,1-2.5-.3" fill="#ef8903"/></g><g id="Fill-6"><path d="M16.7,9.2a3.9,3.9,0,0,1,.8-2.7A2.6,2.6,0,0,1,19,8.6a3.1,3.1,0,0,1-.7,2.6,2.6,2.6,0,0,1-1.6-2" fill="#ef8903"/></g></g></g></g></g></svg>