<svg id="Layer_1" data-name="Layer 1" xmlns="http://www.w3.org/2000/svg" viewBox="0 0 34 35"><title>GreyX_SlideOutModal</title><path d="M33.6,17.5c0,4.7-2.5,8.6-5.4,11.7S21.2,35,16.5,35,7.9,32.5,4.9,29.3A17.3,17.3,0,0,1,0,17.5C0,12.8,1.4,8.4,4.4,5.3A16.4,16.4,0,0,1,16.5,0C21.2,0,26,1.7,29,5a18.2,18.2,0,0,1,4.6,12.5" fill="#a8aa9b"/><path d="M24.5,23.1l-5.9-5.9L24,11.8a1.4,1.4,0,0,0,0-1.5,1.4,1.4,0,0,0-1.5,0l-5.3,5.4-5.4-5.4a1.4,1.4,0,0,0-1.5,0,1.4,1.4,0,0,0,0,1.5l5.4,5.4L9.8,23.1a1,1,0,0,0,0,1.4,1,1,0,0,0,1.4,0l6-5.9,5.9,5.9a1,1,0,0,0,1.4,0A1,1,0,0,0,24.5,23.1Z" fill="#fff"/></svg>