<svg id="Layer_1" data-name="Layer 1" xmlns="http://www.w3.org/2000/svg" viewBox="0 0 18 18"><title>ReviewStar</title><g id="Symbols"><g id="Review-Star-_-Desktop-_-Yellow" data-name="Review-Star-/-Desktop-/-Yellow"><path id="Fill-1" d="M9.5.3c1.2,2.5,1.1,2.6,2.2,5a1.2,1.2,0,0,0,.7.5l5.2.7c.5.1.5.4.2.8L14,11.2c-.1.1-.1.5-.1.7l.8,5.5q.2.8-.6.3c-2.3-1.3-2.5-.8-4.8-2.1-.2-.1-.5-.5-.7-.4L4.1,17.9a.6.6,0,0,1-.9-.6c.5-2.7.2-2.7.7-5.4,0-.2.4-.7.3-.8-1.9-2-2.1-1.8-4-3.7C-.1,7,0,6.2.5,6.2c2.6-.4,2.6.1,5.2-.3l.7-.5C7.6,2.9,7.5,2.9,8.7.4c.2-.5.6-.6.8-.1" fill="#ffba1f"/></g></g></svg>